<svg xmlns="http://www.w3.org/2000/svg" xmlns:xlink="http://www.w3.org/1999/xlink" width="1152" height="576" viewBox="0 0 864 432"><defs><style>*{stroke-linejoin:round;stroke-linecap:butt}</style></defs><g id="figure_1"><path id="patch_1" d="M0 432h864V0H0z"/><g id="axes_1"><path id="patch_2" d="M156.62 381.73h688.94V26.88H156.62z"/><path id="patch_3" d="M156.62 30.43h656.13v28.39H156.62z" clip-path="url(#pe11a290fd6)" style="fill:#96cac1"/><path id="patch_4" d="M156.62 65.91h351.05v28.4H156.62z" clip-path="url(#pe11a290fd6)" style="fill:#96cac1"/><path id="patch_5" d="M156.62 101.4h139.49v28.39H156.62z" clip-path="url(#pe11a290fd6)" style="fill:#96cac1"/><path id="patch_6" d="M156.62 136.88h85.18v28.4h-85.18z" clip-path="url(#pe11a290fd6)" style="fill:#96cac1"/><path id="patch_7" d="M156.62 172.37h57.6v28.39h-57.6z" clip-path="url(#pe11a290fd6)" style="fill:#96cac1"/><path id="patch_8" d="M156.62 207.85h55.78v28.39h-55.78z" clip-path="url(#pe11a290fd6)" style="fill:#96cac1"/><path id="patch_9" d="M156.62 243.34h54.37v28.39h-54.37z" clip-path="url(#pe11a290fd6)" style="fill:#96cac1"/><path id="patch_10" d="M156.62 278.82h52.9v28.39h-52.9z" clip-path="url(#pe11a290fd6)" style="fill:#96cac1"/><path id="patch_11" d="M156.62 314.3h52.76v28.4h-52.76z" clip-path="url(#pe11a290fd6)" style="fill:#96cac1"/><path id="patch_12" d="M156.62 349.8h40.7v28.38h-40.7z" clip-path="url(#pe11a290fd6)" style="fill:#96cac1"/><g id="matplotlib.axis_1"><g id="xtick_1"><g id="line2d_1"><defs><path id="m7e162aa351" d="M0 0v3.5" style="stroke:#fff;stroke-width:.8"/></defs><use xlink:href="#m7e162aa351" x="156.62" y="381.73" style="fill:#fff;stroke:#fff;stroke-width:.8"/></g><g id="text_1" style="fill:#fff" transform="scale(.1 -.1)rotate(45 5657.7 -180.48)"><defs><path id="DejaVuSans-30" d="M2034 4250q-487 0-733-480-245-479-245-1442 0-959 245-1439 246-480 733-480 491 0 736 480 246 480 246 1439 0 963-246 1442-245 480-736 480m0 500q785 0 1199-621 414-620 414-1801 0-1178-414-1799Q2819-91 2034-91q-784 0-1198 620-414 621-414 1799 0 1181 414 1801 414 621 1198 621" transform="scale(.01563)"/><path id="DejaVuSans-2e" d="M684 794h660V0H684z" transform="scale(.01563)"/></defs><use xlink:href="#DejaVuSans-30"/><use xlink:href="#DejaVuSans-2e" x="63.62"/><use xlink:href="#DejaVuSans-30" x="95.41"/></g></g><g id="xtick_2"><use xlink:href="#m7e162aa351" id="line2d_2" x="242.54" y="381.73" style="fill:#fff;stroke:#fff;stroke-width:.8"/><g id="text_2" style="fill:#fff" transform="scale(.1 -.1)rotate(45 6087.3 856.64)"><defs><path id="DejaVuSans-32" d="M1228 531h2203V0H469v531q359 372 979 998 621 627 780 809 303 340 423 576 121 236 121 464 0 372-261 606-261 235-680 235-297 0-627-103-329-103-704-313v638q381 153 712 231 332 78 607 78 725 0 1156-363 431-362 431-968 0-288-108-546-107-257-392-607-78-91-497-524-418-433-1181-1211" transform="scale(.01563)"/></defs><use xlink:href="#DejaVuSans-30"/><use xlink:href="#DejaVuSans-2e" x="63.62"/><use xlink:href="#DejaVuSans-32" x="95.41"/></g></g><g id="xtick_3"><use xlink:href="#m7e162aa351" id="line2d_3" x="328.45" y="381.73" style="fill:#fff;stroke:#fff;stroke-width:.8"/><g id="text_3" style="fill:#fff" transform="scale(.1 -.1)rotate(45 6516.88 1893.75)"><defs><path id="DejaVuSans-34" d="M2419 4116 825 1625h1594zm-166 550h794V1625h666v-525h-666V0h-628v1100H313v609z" transform="scale(.01563)"/></defs><use xlink:href="#DejaVuSans-30"/><use xlink:href="#DejaVuSans-2e" x="63.62"/><use xlink:href="#DejaVuSans-34" x="95.41"/></g></g><g id="xtick_4"><use xlink:href="#m7e162aa351" id="line2d_4" x="414.37" y="381.73" style="fill:#fff;stroke:#fff;stroke-width:.8"/><g id="text_4" style="fill:#fff" transform="scale(.1 -.1)rotate(45 6946.47 2930.87)"><defs><path id="DejaVuSans-36" d="M2113 2584q-425 0-674-291-248-290-248-796 0-503 248-796 249-292 674-292t673 292q248 293 248 796 0 506-248 796-248 291-673 291m1253 1979v-575q-238 112-480 171-242 60-480 60-625 0-955-422-329-422-376-1275 184 272 462 417 279 145 613 145 703 0 1111-427 408-426 408-1160 0-719-425-1154Q2819-91 2113-91q-810 0-1238 620-428 621-428 1799 0 1106 525 1764t1409 658q238 0 480-47t505-140" transform="scale(.01563)"/></defs><use xlink:href="#DejaVuSans-30"/><use xlink:href="#DejaVuSans-2e" x="63.62"/><use xlink:href="#DejaVuSans-36" x="95.41"/></g></g><g id="xtick_5"><use xlink:href="#m7e162aa351" id="line2d_5" x="500.29" y="381.73" style="fill:#fff;stroke:#fff;stroke-width:.8"/><g id="text_5" style="fill:#fff" transform="scale(.1 -.1)rotate(45 7376.05 3967.98)"><defs><path id="DejaVuSans-38" d="M2034 2216q-450 0-708-241-257-241-257-662 0-422 257-663 258-241 708-241t709 242q260 243 260 662 0 421-258 662-257 241-711 241m-631 268q-406 100-633 378-226 279-226 679 0 559 398 884 399 325 1092 325 697 0 1094-325t397-884q0-400-227-679-226-278-629-378 456-106 710-416 255-309 255-755 0-679-414-1042Q2806-91 2034-91q-771 0-1186 362-414 363-414 1042 0 446 256 755 257 310 713 416m-231 997q0-362 226-565 227-203 636-203 407 0 636 203 230 203 230 565 0 363-230 566-229 203-636 203-409 0-636-203-226-203-226-566" transform="scale(.01563)"/></defs><use xlink:href="#DejaVuSans-30"/><use xlink:href="#DejaVuSans-2e" x="63.62"/><use xlink:href="#DejaVuSans-38" x="95.41"/></g></g><g id="xtick_6"><use xlink:href="#m7e162aa351" id="line2d_6" x="586.21" y="381.73" style="fill:#fff;stroke:#fff;stroke-width:.8"/><g id="text_6" style="fill:#fff" transform="scale(.1 -.1)rotate(45 7805.64 5005.1)"><defs><path id="DejaVuSans-31" d="M794 531h1031v3560L703 3866v575l1116 225h631V531h1031V0H794z" transform="scale(.01563)"/></defs><use xlink:href="#DejaVuSans-31"/><use xlink:href="#DejaVuSans-2e" x="63.62"/><use xlink:href="#DejaVuSans-30" x="95.41"/></g></g><g id="xtick_7"><use xlink:href="#m7e162aa351" id="line2d_7" x="672.12" y="381.73" style="fill:#fff;stroke:#fff;stroke-width:.8"/><g id="text_7" style="fill:#fff" transform="scale(.1 -.1)rotate(45 8235.23 6042.21)"><use xlink:href="#DejaVuSans-31"/><use xlink:href="#DejaVuSans-2e" x="63.62"/><use xlink:href="#DejaVuSans-32" x="95.41"/></g></g><g id="xtick_8"><use xlink:href="#m7e162aa351" id="line2d_8" x="758.04" y="381.73" style="fill:#fff;stroke:#fff;stroke-width:.8"/><g id="text_8" style="fill:#fff" transform="scale(.1 -.1)rotate(45 8664.81 7079.33)"><use xlink:href="#DejaVuSans-31"/><use xlink:href="#DejaVuSans-2e" x="63.62"/><use xlink:href="#DejaVuSans-34" x="95.41"/></g></g><g id="xtick_9"><use xlink:href="#m7e162aa351" id="line2d_9" x="843.96" y="381.73" style="fill:#fff;stroke:#fff;stroke-width:.8"/><g id="text_9" style="fill:#fff" transform="scale(.1 -.1)rotate(45 9094.4 8116.44)"><use xlink:href="#DejaVuSans-31"/><use xlink:href="#DejaVuSans-2e" x="63.62"/><use xlink:href="#DejaVuSans-36" x="95.41"/></g></g><g id="text_10" style="fill:#fff" transform="matrix(.1 0 0 -.1 435.44 418.42)"><defs><path id="DejaVuSans-41" d="m2188 4044-857-2322h1716zm-357 622h716L4325 0h-656l-425 1197H1141L716 0H50z" transform="scale(.01563)"/><path id="DejaVuSans-62" d="M3116 1747q0 634-261 995t-717 361q-457 0-718-361t-261-995 261-995 718-361q456 0 717 361t261 995M1159 2969q182 312 458 463 277 152 661 152 638 0 1036-506 399-506 399-1331T3314 415Q2916-91 2278-91q-384 0-661 152-276 152-458 464V0H581v4863h578z" transform="scale(.01563)"/><path id="DejaVuSans-73" d="M2834 3397v-544q-243 125-506 187-262 63-544 63-428 0-642-131t-214-394q0-200 153-314t616-217l197-44q612-131 870-370t258-667q0-488-386-773Q2250-91 1575-91q-281 0-586 55T347 128v594q319-166 628-249 309-82 613-82 406 0 624 139 219 139 219 392 0 234-158 359-157 125-692 241l-200 47q-534 112-772 345-237 233-237 639 0 494 350 762 350 269 994 269 318 0 599-47 282-46 519-140" transform="scale(.01563)"/><path id="DejaVuSans-6f" d="M1959 3097q-462 0-731-361t-269-989 267-989q268-361 733-361 460 0 728 362 269 363 269 988 0 622-269 986-268 364-728 364m0 487q750 0 1178-488 429-487 429-1349 0-859-429-1349Q2709-91 1959-91q-753 0-1180 489-426 490-426 1349 0 862 426 1349 427 488 1180 488" transform="scale(.01563)"/><path id="DejaVuSans-6c" d="M603 4863h575V0H603z" transform="scale(.01563)"/><path id="DejaVuSans-75" d="M544 1381v2119h575V1403q0-497 193-746 194-248 582-248 465 0 735 297 271 297 271 810v1984h575V0h-575v538q-209-319-486-474-276-155-642-155-603 0-916 375-312 375-312 1097m1447 2203" transform="scale(.01563)"/><path id="DejaVuSans-74" d="M1172 4494v-994h1184v-447H1172V1153q0-428 117-550t477-122h590V0h-590q-666 0-919 248-253 249-253 905v1900H172v447h422v994z" transform="scale(.01563)"/><path id="DejaVuSans-65" d="M3597 1894v-281H953q38-594 358-905t892-311q331 0 642 81t618 244V178Q3153 47 2828-22t-659-69q-838 0-1327 487-489 488-489 1320 0 859 464 1363 464 505 1252 505 706 0 1117-455 411-454 411-1235m-575 169q-6 471-264 752-258 282-683 282-481 0-770-272t-333-766z" transform="scale(.01563)"/><path id="DejaVuSans-43" d="M4122 4306v-665q-319 297-680 443-361 147-767 147-800 0-1225-489t-425-1414q0-922 425-1411t1225-489q406 0 767 147t680 444V359q-331-225-702-338-370-112-782-112-1060 0-1670 648-609 649-609 1771 0 1125 609 1773 610 649 1670 649 418 0 788-111 371-111 696-333" transform="scale(.01563)"/><path id="DejaVuSans-66" d="M2375 4863v-479h-550q-309 0-430-125-120-125-120-450v-309h947v-447h-947V0H697v3053H147v447h550v244q0 584 272 851 272 268 862 268z" transform="scale(.01563)"/><path id="DejaVuSans-69" d="M603 3500h575V0H603zm0 1363h575v-729H603z" transform="scale(.01563)"/><path id="DejaVuSans-63" d="M3122 3366v-538q-244 135-489 202t-495 67q-560 0-870-355-309-354-309-995t309-996q310-354 870-354 250 0 495 67t489 202V134Q2881 22 2623-34q-257-57-548-57-791 0-1257 497-465 497-465 1341 0 856 470 1346 471 491 1290 491 265 0 518-55 253-54 491-163" transform="scale(.01563)"/><path id="DejaVuSans-6e" d="M3513 2113V0h-575v2094q0 497-194 743-194 247-581 247-466 0-735-297-269-296-269-809V0H581v3500h578v-544q207 316 486 472 280 156 646 156 603 0 912-373 310-373 310-1098" transform="scale(.01563)"/><path id="DejaVuSans-56" d="M1831 0 50 4666h659L2188 738l1481 3928h656L2547 0z" transform="scale(.01563)"/><path id="DejaVuSans-61" d="M2194 1759q-697 0-966-159t-269-544q0-306 202-486 202-179 548-179 479 0 768 339t289 901v128zm1147 238V0h-575v531q-197-318-491-470T1556-91q-537 0-855 302-317 302-317 808 0 590 395 890 396 300 1180 300h807v57q0 397-261 614t-733 217q-300 0-585-72-284-72-546-216v532q315 122 612 182 297 61 578 61 760 0 1135-394 375-393 375-1193" transform="scale(.01563)"/></defs><use xlink:href="#DejaVuSans-41"/><use xlink:href="#DejaVuSans-62" x="68.41"/><use xlink:href="#DejaVuSans-73" x="131.88"/><use xlink:href="#DejaVuSans-6f" x="183.98"/><use xlink:href="#DejaVuSans-6c" x="245.17"/><use xlink:href="#DejaVuSans-75" x="272.95"/><use xlink:href="#DejaVuSans-74" x="336.33"/><use xlink:href="#DejaVuSans-65" x="375.54"/><use xlink:href="#DejaVuSans-43" x="468.85"/><use xlink:href="#DejaVuSans-6f" x="538.67"/><use xlink:href="#DejaVuSans-65" x="599.85"/><use xlink:href="#DejaVuSans-66" x="661.38"/><use xlink:href="#DejaVuSans-66" x="696.58"/><use xlink:href="#DejaVuSans-69" x="731.79"/><use xlink:href="#DejaVuSans-63" x="759.57"/><use xlink:href="#DejaVuSans-69" x="814.55"/><use xlink:href="#DejaVuSans-65" x="842.33"/><use xlink:href="#DejaVuSans-6e" x="903.86"/><use xlink:href="#DejaVuSans-74" x="967.24"/><use xlink:href="#DejaVuSans-56" x="1038.23"/><use xlink:href="#DejaVuSans-61" x="1098.89"/><use xlink:href="#DejaVuSans-6c" x="1160.17"/><use xlink:href="#DejaVuSans-75" x="1187.95"/><use xlink:href="#DejaVuSans-65" x="1251.33"/></g></g><g id="matplotlib.axis_2"><g id="ytick_1"><g id="line2d_10"><defs><path id="ma63bc36b13" d="M0 0h-3.5" style="stroke:#fff;stroke-width:.8"/></defs><use xlink:href="#ma63bc36b13" x="156.62" y="44.62" style="fill:#fff;stroke:#fff;stroke-width:.8"/></g><g id="text_11" style="fill:#fff" transform="matrix(.1 0 0 -.1 92.74 48.42)"><defs><path id="DejaVuSans-50" d="M1259 4147V2394h794q441 0 681 228 241 228 241 650 0 419-241 647-240 228-681 228zm-631 519h1425q785 0 1186-355 402-355 402-1039 0-691-402-1044-401-353-1186-353h-794V0H628z" transform="scale(.01563)"/><path id="DejaVuSans-67" d="M2906 1791q0 625-258 968-257 344-723 344-462 0-720-344-258-343-258-968 0-622 258-966t720-344q466 0 723 344 258 344 258 966m575-1357q0-893-397-1329-396-436-1215-436-303 0-572 45t-522 139v559q253-137 500-202 247-66 503-66 566 0 847 295t281 892v285q-178-310-456-463T1784 0Q1141 0 747 490 353 981 353 1791q0 812 394 1302 394 491 1037 491 388 0 666-153t456-462v531h575z" transform="scale(.01563)"/></defs><use xlink:href="#DejaVuSans-50"/><use xlink:href="#DejaVuSans-61" x="55.8"/><use xlink:href="#DejaVuSans-67" x="117.08"/><use xlink:href="#DejaVuSans-65" x="180.56"/><use xlink:href="#DejaVuSans-56" x="242.08"/><use xlink:href="#DejaVuSans-61" x="302.74"/><use xlink:href="#DejaVuSans-6c" x="364.02"/><use xlink:href="#DejaVuSans-75" x="391.8"/><use xlink:href="#DejaVuSans-65" x="455.18"/><use xlink:href="#DejaVuSans-73" x="516.71"/></g></g><g id="ytick_2"><use xlink:href="#ma63bc36b13" id="line2d_11" x="156.62" y="80.11" style="fill:#fff;stroke:#fff;stroke-width:.8"/><g id="text_12" style="fill:#fff" transform="matrix(.1 0 0 -.1 102.55 83.9)"><defs><path id="DejaVuSans-45" d="M628 4666h2950v-532H1259V2753h2222v-531H1259V531h2375V0H628z" transform="scale(.01563)"/><path id="DejaVuSans-78" d="M3513 3500 2247 1797 3578 0h-678L1881 1375 863 0H184l1360 1831L300 3500h678l928-1247 928 1247z" transform="scale(.01563)"/><path id="DejaVuSans-52" d="M2841 2188q203-69 395-294t386-619L4263 0h-679l-596 1197q-232 469-449 622t-592 153h-688V0H628v4666h1425q800 0 1194-335 394-334 394-1009 0-441-205-732-205-290-595-402M1259 4147V2491h794q456 0 689 211t233 620-233 617-689 208z" transform="scale(.01563)"/></defs><use xlink:href="#DejaVuSans-45"/><use xlink:href="#DejaVuSans-78" x="63.18"/><use xlink:href="#DejaVuSans-69" x="122.36"/><use xlink:href="#DejaVuSans-74" x="150.15"/><use xlink:href="#DejaVuSans-52" x="189.36"/><use xlink:href="#DejaVuSans-61" x="256.59"/><use xlink:href="#DejaVuSans-74" x="317.87"/><use xlink:href="#DejaVuSans-65" x="357.08"/><use xlink:href="#DejaVuSans-73" x="418.6"/></g></g><g id="ytick_3"><use xlink:href="#ma63bc36b13" id="line2d_12" x="156.62" y="115.59" style="fill:#fff;stroke:#fff;stroke-width:.8"/><g id="text_13" style="fill:#fff" transform="matrix(.1 0 0 -.1 93.76 119.4)"><defs><path id="DejaVuSans-4d" d="M628 4666h941l1190-3175 1197 3175h941V0h-616v4097L3078 897h-634L1241 4097V0H628z" transform="scale(.01563)"/><path id="DejaVuSans-68" d="M3513 2113V0h-575v2094q0 497-194 743-194 247-581 247-466 0-735-297-269-296-269-809V0H581v4863h578V2956q207 316 486 472 280 156 646 156 603 0 912-373 310-373 310-1098" transform="scale(.01563)"/><path id="DejaVuSans-5f" d="M3263-1063v-446H-63v446z" transform="scale(.01563)"/><path id="DejaVuSans-4e" d="M628 4666h850L3547 763v3903h612V0h-850L1241 3903V0H628z" transform="scale(.01563)"/><path id="DejaVuSans-76" d="M191 3500h609L1894 563l1094 2937h609L2284 0h-781z" transform="scale(.01563)"/></defs><use xlink:href="#DejaVuSans-4d"/><use xlink:href="#DejaVuSans-6f" x="86.28"/><use xlink:href="#DejaVuSans-6e" x="147.46"/><use xlink:href="#DejaVuSans-74" x="210.84"/><use xlink:href="#DejaVuSans-68" x="250.05"/><use xlink:href="#DejaVuSans-5f" x="313.43"/><use xlink:href="#DejaVuSans-4e" x="363.43"/><use xlink:href="#DejaVuSans-6f" x="438.23"/><use xlink:href="#DejaVuSans-76" x="499.41"/></g></g><g id="ytick_4"><use xlink:href="#ma63bc36b13" id="line2d_13" x="156.62" y="151.08" style="fill:#fff;stroke:#fff;stroke-width:.8"/><g id="text_14" style="fill:#fff" transform="matrix(.1 0 0 -.1 95.57 154.88)"><defs><path id="DejaVuSans-46" d="M628 4666h2681v-532H1259V2759h1850v-531H1259V0H628z" transform="scale(.01563)"/></defs><use xlink:href="#DejaVuSans-4d"/><use xlink:href="#DejaVuSans-6f" x="86.28"/><use xlink:href="#DejaVuSans-6e" x="147.46"/><use xlink:href="#DejaVuSans-74" x="210.84"/><use xlink:href="#DejaVuSans-68" x="250.05"/><use xlink:href="#DejaVuSans-5f" x="313.43"/><use xlink:href="#DejaVuSans-46" x="363.43"/><use xlink:href="#DejaVuSans-65" x="415.45"/><use xlink:href="#DejaVuSans-62" x="476.97"/></g></g><g id="ytick_5"><use xlink:href="#ma63bc36b13" id="line2d_14" x="156.62" y="186.56" style="fill:#fff;stroke:#fff;stroke-width:.8"/><g id="text_15" style="fill:#fff" transform="matrix(.1 0 0 -.1 92.6 190.36)"><defs><path id="DejaVuSans-79" d="M2059-325q-243-625-475-815-231-191-618-191H506v481h338q237 0 368 113 132 112 291 531l103 262L191 3500h609L1894 763l1094 2737h609z" transform="scale(.01563)"/></defs><use xlink:href="#DejaVuSans-4d"/><use xlink:href="#DejaVuSans-6f" x="86.28"/><use xlink:href="#DejaVuSans-6e" x="147.46"/><use xlink:href="#DejaVuSans-74" x="210.84"/><use xlink:href="#DejaVuSans-68" x="250.05"/><use xlink:href="#DejaVuSans-5f" x="313.43"/><use xlink:href="#DejaVuSans-4d" x="363.43"/><use xlink:href="#DejaVuSans-61" x="449.71"/><use xlink:href="#DejaVuSans-79" x="510.99"/></g></g><g id="ytick_6"><use xlink:href="#ma63bc36b13" id="line2d_15" x="156.62" y="222.05" style="fill:#fff;stroke:#fff;stroke-width:.8"/><g id="text_16" style="fill:#fff" transform="matrix(.1 0 0 -.1 94.41 225.85)"><defs><path id="DejaVuSans-72" d="M2631 2963q-97 56-211 82-114 27-251 27-488 0-749-317t-261-911V0H581v3500h578v-544q182 319 472 473 291 155 707 155 59 0 131-8 72-7 159-23z" transform="scale(.01563)"/></defs><use xlink:href="#DejaVuSans-4d"/><use xlink:href="#DejaVuSans-6f" x="86.28"/><use xlink:href="#DejaVuSans-6e" x="147.46"/><use xlink:href="#DejaVuSans-74" x="210.84"/><use xlink:href="#DejaVuSans-68" x="250.05"/><use xlink:href="#DejaVuSans-5f" x="313.43"/><use xlink:href="#DejaVuSans-4d" x="363.43"/><use xlink:href="#DejaVuSans-61" x="449.71"/><use xlink:href="#DejaVuSans-72" x="510.99"/></g></g><g id="ytick_7"><use xlink:href="#ma63bc36b13" id="line2d_16" x="156.62" y="257.53" style="fill:#fff;stroke:#fff;stroke-width:.8"/><g id="text_17" style="fill:#fff" transform="matrix(.1 0 0 -.1 93.93 261.33)"><defs><path id="DejaVuSans-44" d="M1259 4147V519h763q966 0 1414 437 448 438 448 1382 0 937-448 1373t-1414 436zm-631 519h1297q1356 0 1990-564 635-564 635-1764 0-1207-638-1773Q3275 0 1925 0H628z" transform="scale(.01563)"/></defs><use xlink:href="#DejaVuSans-4d"/><use xlink:href="#DejaVuSans-6f" x="86.28"/><use xlink:href="#DejaVuSans-6e" x="147.46"/><use xlink:href="#DejaVuSans-74" x="210.84"/><use xlink:href="#DejaVuSans-68" x="250.05"/><use xlink:href="#DejaVuSans-5f" x="313.43"/><use xlink:href="#DejaVuSans-44" x="363.43"/><use xlink:href="#DejaVuSans-65" x="440.43"/><use xlink:href="#DejaVuSans-63" x="501.95"/></g></g><g id="ytick_8"><use xlink:href="#ma63bc36b13" id="line2d_17" x="156.62" y="293.02" style="fill:#fff;stroke:#fff;stroke-width:.8"/><g id="text_18" style="fill:#fff" transform="matrix(.1 0 0 -.1 25.25 296.82)"><defs><path id="DejaVuSans-64" d="M2906 2969v1894h575V0h-575v525q-181-312-458-464-276-152-664-152-634 0-1033 506-398 507-398 1332t398 1331q399 506 1033 506 388 0 664-152 277-151 458-463M947 1747q0-634 261-995t717-361 718 361q263 361 263 995t-263 995q-262 361-718 361t-717-361-261-995" transform="scale(.01563)"/></defs><use xlink:href="#DejaVuSans-50"/><use xlink:href="#DejaVuSans-72" x="58.55"/><use xlink:href="#DejaVuSans-6f" x="97.42"/><use xlink:href="#DejaVuSans-64" x="158.6"/><use xlink:href="#DejaVuSans-75" x="222.07"/><use xlink:href="#DejaVuSans-63" x="285.45"/><use xlink:href="#DejaVuSans-74" x="340.43"/><use xlink:href="#DejaVuSans-52" x="379.64"/><use xlink:href="#DejaVuSans-65" x="444.63"/><use xlink:href="#DejaVuSans-6c" x="506.15"/><use xlink:href="#DejaVuSans-61" x="533.93"/><use xlink:href="#DejaVuSans-74" x="595.21"/><use xlink:href="#DejaVuSans-65" x="634.42"/><use xlink:href="#DejaVuSans-64" x="695.94"/><use xlink:href="#DejaVuSans-5f" x="759.42"/><use xlink:href="#DejaVuSans-44" x="809.42"/><use xlink:href="#DejaVuSans-75" x="886.42"/><use xlink:href="#DejaVuSans-72" x="949.8"/><use xlink:href="#DejaVuSans-61" x="990.91"/><use xlink:href="#DejaVuSans-74" x="1052.19"/><use xlink:href="#DejaVuSans-69" x="1091.4"/><use xlink:href="#DejaVuSans-6f" x="1119.19"/><use xlink:href="#DejaVuSans-6e" x="1180.37"/></g></g><g id="ytick_9"><use xlink:href="#ma63bc36b13" id="line2d_18" x="156.62" y="328.5" style="fill:#fff;stroke:#fff;stroke-width:.8"/><g id="text_19" style="fill:#fff" transform="matrix(.1 0 0 -.1 84.18 332.3)"><defs><path id="DejaVuSans-42" d="M1259 2228V519h1013q509 0 754 211 246 211 246 645 0 438-246 645-245 208-754 208zm0 1919V2741h935q462 0 688 173 227 174 227 530 0 353-227 528-226 175-688 175zm-631 519h1613q722 0 1112-300 391-300 391-853 0-429-200-682t-588-315q466-100 724-418 258-317 258-792 0-625-425-966Q3088 0 2303 0H628z" transform="scale(.01563)"/></defs><use xlink:href="#DejaVuSans-42"/><use xlink:href="#DejaVuSans-6f" x="68.6"/><use xlink:href="#DejaVuSans-75" x="129.79"/><use xlink:href="#DejaVuSans-6e" x="193.16"/><use xlink:href="#DejaVuSans-63" x="256.54"/><use xlink:href="#DejaVuSans-65" x="311.52"/><use xlink:href="#DejaVuSans-52" x="373.05"/><use xlink:href="#DejaVuSans-61" x="440.28"/><use xlink:href="#DejaVuSans-74" x="501.56"/><use xlink:href="#DejaVuSans-65" x="540.77"/><use xlink:href="#DejaVuSans-73" x="602.29"/></g></g><g id="ytick_10"><use xlink:href="#ma63bc36b13" id="line2d_19" x="156.62" y="363.99" style="fill:#fff;stroke:#fff;stroke-width:.8"/><g id="text_20" style="fill:#fff" transform="matrix(.1 0 0 -.1 57.12 367.78)"><defs><path id="DejaVuSans-4f" d="M2522 4238q-688 0-1093-513-404-512-404-1397 0-881 404-1394 405-512 1093-512 687 0 1089 512 402 513 402 1394 0 885-402 1397-402 513-1089 513m0 512q981 0 1568-658 588-658 588-1764 0-1103-588-1761Q3503-91 2522-91q-984 0-1574 656-589 657-589 1763t589 1764q590 658 1574 658" transform="scale(.01563)"/><path id="DejaVuSans-70" d="M1159 525v-1856H581v4831h578v-531q182 312 458 463 277 152 661 152 638 0 1036-506 399-506 399-1331T3314 415Q2916-91 2278-91q-384 0-661 152-276 152-458 464m1957 1222q0 634-261 995t-717 361q-457 0-718-361t-261-995 261-995 718-361q456 0 717 361t261 995" transform="scale(.01563)"/><path id="DejaVuSans-53" d="M3425 4513v-616q-359 172-678 256-319 85-616 85-515 0-795-200t-280-569q0-310 186-468 186-157 705-254l381-78q706-135 1042-474t336-907q0-679-455-1029Q2797-91 1919-91q-331 0-705 75-373 75-773 222v650q384-215 753-325 369-109 725-109 540 0 834 212 294 213 294 607 0 343-211 537t-692 291l-385 75q-706 140-1022 440-315 300-315 835 0 619 436 975t1201 356q329 0 669-60 341-59 697-177" transform="scale(.01563)"/><path id="DejaVuSans-6d" d="M3328 2828q216 388 516 572t706 184q547 0 844-383 297-382 297-1088V0h-578v2094q0 503-179 746-178 244-543 244-447 0-707-297-259-296-259-809V0h-578v2094q0 506-178 748t-550 242q-441 0-701-298-259-298-259-808V0H581v3500h578v-544q197 322 472 475t653 153q382 0 649-194 267-193 395-562" transform="scale(.01563)"/></defs><use xlink:href="#DejaVuSans-4f"/><use xlink:href="#DejaVuSans-70" x="78.71"/><use xlink:href="#DejaVuSans-65" x="142.19"/><use xlink:href="#DejaVuSans-72" x="203.71"/><use xlink:href="#DejaVuSans-61" x="244.82"/><use xlink:href="#DejaVuSans-74" x="306.1"/><use xlink:href="#DejaVuSans-69" x="345.31"/><use xlink:href="#DejaVuSans-6e" x="373.1"/><use xlink:href="#DejaVuSans-67" x="436.47"/><use xlink:href="#DejaVuSans-53" x="499.95"/><use xlink:href="#DejaVuSans-79" x="563.43"/><use xlink:href="#DejaVuSans-73" x="622.61"/><use xlink:href="#DejaVuSans-74" x="674.71"/><use xlink:href="#DejaVuSans-65" x="713.92"/><use xlink:href="#DejaVuSans-6d" x="775.44"/><use xlink:href="#DejaVuSans-73" x="872.85"/></g></g><g id="text_21" style="fill:#fff" transform="matrix(0 -.1 -.1 0 19.17 223.2)"><use xlink:href="#DejaVuSans-46"/><use xlink:href="#DejaVuSans-65" x="52.02"/><use xlink:href="#DejaVuSans-61" x="113.54"/><use xlink:href="#DejaVuSans-74" x="174.82"/><use xlink:href="#DejaVuSans-75" x="214.03"/><use xlink:href="#DejaVuSans-72" x="277.41"/><use xlink:href="#DejaVuSans-65" x="316.27"/></g></g><path id="patch_13" d="M156.62 381.73V26.88" style="fill:none;stroke:#fff;stroke-width:.8;stroke-linejoin:miter;stroke-linecap:square"/><path id="patch_14" d="M845.56 381.73V26.88" style="fill:none;stroke:#fff;stroke-width:.8;stroke-linejoin:miter;stroke-linecap:square"/><path id="patch_15" d="M156.62 381.73h688.94" style="fill:none;stroke:#fff;stroke-width:.8;stroke-linejoin:miter;stroke-linecap:square"/><path id="patch_16" d="M156.62 26.88h688.94" style="fill:none;stroke:#fff;stroke-width:.8;stroke-linejoin:miter;stroke-linecap:square"/><g id="text_22" style="fill:#fff" transform="matrix(.12 0 0 -.12 334.82 20.88)"><defs><path id="DejaVuSans-54" d="M-19 4666h3947v-532H2272V0h-634v4134H-19z" transform="scale(.01563)"/><path id="DejaVuSans-49" d="M628 4666h631V0H628z" transform="scale(.01563)"/></defs><use xlink:href="#DejaVuSans-54"/><use xlink:href="#DejaVuSans-6f" x="44.08"/><use xlink:href="#DejaVuSans-70" x="105.27"/><use xlink:href="#DejaVuSans-31" x="200.53"/><use xlink:href="#DejaVuSans-30" x="264.15"/><use xlink:href="#DejaVuSans-4d" x="359.56"/><use xlink:href="#DejaVuSans-6f" x="445.84"/><use xlink:href="#DejaVuSans-73" x="507.02"/><use xlink:href="#DejaVuSans-74" x="559.12"/><use xlink:href="#DejaVuSans-49" x="630.12"/><use xlink:href="#DejaVuSans-6d" x="659.61"/><use xlink:href="#DejaVuSans-70" x="757.02"/><use xlink:href="#DejaVuSans-6f" x="820.5"/><use xlink:href="#DejaVuSans-72" x="881.68"/><use xlink:href="#DejaVuSans-74" x="922.79"/><use xlink:href="#DejaVuSans-61" x="962"/><use xlink:href="#DejaVuSans-6e" x="1023.28"/><use xlink:href="#DejaVuSans-74" x="1086.66"/><use xlink:href="#DejaVuSans-46" x="1157.66"/><use xlink:href="#DejaVuSans-65" x="1209.68"/><use xlink:href="#DejaVuSans-61" x="1271.2"/><use xlink:href="#DejaVuSans-74" x="1332.48"/><use xlink:href="#DejaVuSans-75" x="1371.69"/><use xlink:href="#DejaVuSans-72" x="1435.07"/><use xlink:href="#DejaVuSans-65" x="1473.93"/><use xlink:href="#DejaVuSans-73" x="1535.46"/><use xlink:href="#DejaVuSans-66" x="1619.34"/><use xlink:href="#DejaVuSans-6f" x="1654.55"/><use xlink:href="#DejaVuSans-72" x="1715.73"/><use xlink:href="#DejaVuSans-50" x="1788.63"/><use xlink:href="#DejaVuSans-75" x="1847.18"/><use xlink:href="#DejaVuSans-72" x="1910.56"/><use xlink:href="#DejaVuSans-63" x="1949.42"/><use xlink:href="#DejaVuSans-68" x="2004.4"/><use xlink:href="#DejaVuSans-61" x="2067.78"/><use xlink:href="#DejaVuSans-73" x="2129.06"/><use xlink:href="#DejaVuSans-65" x="2181.16"/><use xlink:href="#DejaVuSans-50" x="2274.47"/><use xlink:href="#DejaVuSans-72" x="2333.03"/><use xlink:href="#DejaVuSans-65" x="2371.89"/><use xlink:href="#DejaVuSans-64" x="2433.41"/><use xlink:href="#DejaVuSans-69" x="2496.89"/><use xlink:href="#DejaVuSans-63" x="2524.67"/><use xlink:href="#DejaVuSans-74" x="2579.65"/><use xlink:href="#DejaVuSans-69" x="2618.86"/><use xlink:href="#DejaVuSans-6f" x="2646.64"/><use xlink:href="#DejaVuSans-6e" x="2707.83"/></g></g></g><defs><clipPath id="pe11a290fd6"><path d="M156.62 26.88h688.94v354.85H156.62z"/></clipPath></defs></svg>